<?xml version="1.0" encoding="utf-8"?><svg viewBox="0 0 75 68" xmlns="http://www.w3.org/2000/svg" xmlns:xlink="http://www.w3.org/1999/xlink"><style>:root>svg{display:none}:root>svg:target{display:block}</style><svg fill="none" viewBox="0 0 18 11" id="arrow" xmlns="http://www.w3.org/2000/svg"><path d="M2 2l7 7 7-7" stroke="#8E96B7" stroke-width="3" stroke-linecap="round" stroke-linejoin="round"/></svg><svg fill="none" viewBox="0 0 75 66" id="css--icon_humans" xmlns="http://www.w3.org/2000/svg"><ellipse cx="28.625" cy="17.5" rx="15.637" ry="15.5" stroke="#5E80FF" stroke-width="4" stroke-linecap="round" stroke-linejoin="round"/><path d="M55.25 64c0-14.344-11.92-25.973-26.625-25.973S2 49.656 2 64" stroke="#5E80FF" stroke-width="4" stroke-linecap="round" stroke-linejoin="round"/><ellipse cx="62.012" cy="20.223" rx="6.453" ry="6.493" stroke="#5E80FF" stroke-width="3" stroke-linecap="round" stroke-linejoin="round"/><path d="M73 39.703c0-6.01-4.92-10.88-10.988-10.88-6.069 0-10.988 4.87-10.988 10.88" stroke="#5E80FF" stroke-width="3" stroke-linecap="round" stroke-linejoin="round"/></svg><svg fill="none" viewBox="0 0 67 68" id="css--icon_speed" xmlns="http://www.w3.org/2000/svg"><path d="M2 33.625C2 16.159 16.241 2 33.809 2c3.237 0 6.362.481 9.306 1.375" stroke="#fff" stroke-width="4" stroke-linecap="round" stroke-linejoin="round"/><path fill-rule="evenodd" clip-rule="evenodd" d="M26.963 40.43c3.78 3.76 9.91 3.76 13.69 0 3.781-3.758 19.432-30.18 18.049-31.555C57.319 7.5 30.744 23.06 26.962 26.819a9.586 9.586 0 000 13.612zm6.845-4.055a2.758 2.758 0 002.766-2.75 2.758 2.758 0 00-2.766-2.75 2.758 2.758 0 00-2.766 2.75 2.758 2.758 0 002.766 2.75z" fill="#fff"/><ellipse cx="6.149" cy="50.125" rx="2.766" ry="2.75" fill="#fff"/><ellipse cx="17.213" cy="61.125" rx="2.766" ry="2.75" fill="#fff"/><ellipse cx="33.808" cy="65.25" rx="2.766" ry="2.75" fill="#fff"/><ellipse cx="50.404" cy="61.125" rx="2.766" ry="2.75" fill="#fff"/><ellipse cx="60.085" cy="50.125" rx="2.766" ry="2.75" fill="#fff"/><ellipse cx="64.234" cy="33.625" rx="2.766" ry="2.75" fill="#fff"/></svg></svg>